<?xml version="1.0" encoding="UTF-8"?><svg xmlns="http://www.w3.org/2000/svg" xmlns:xlink="http://www.w3.org/1999/xlink" version="1.1" id="Layer_1" x="0px" y="0px" viewBox="0 0 150 150" xml:space="preserve"><style type="text/css">.st0{fill:#45B39C;} .st1{fill:#F6C358;} .st2{fill:#FCD462;} .st3{fill:none;} .st4{fill:#DC8744;} .st5{fill:#334D5C;} .st6{fill:#EFC84A;} .st7{fill:#44C4A1;} .st8{fill:#3EA69B;} .st9{fill:#E1E6E9;} .st10{fill:#EBF0F3;} .st11{fill:#27A2DB;} .st12{fill:#2D93BA;} .st13{fill:#D5D6DB;} .st14{fill:#EA8953;} .st15{fill:#E56353;} .st16{fill:#E05B49;} .st17{fill:#31978C;} .st18{fill:#D15241;} .st19{fill:#64798A;} .st20{fill:#3A556A;} .st21{fill:#1C75A1;} .st22{fill:#FFFFFF;} .st23{fill:#2F4859;} .st24{fill:#3B566A;} .st25{fill:#64798A;stroke:#3B566A;stroke-width:2;stroke-linecap:round;stroke-linejoin:round;stroke-miterlimit:10;} .st26{fill:#CE412D;} .st27{fill:none;stroke:#2D93BA;stroke-width:4;stroke-miterlimit:10;}</style><path class="st14" fill="#EA8953" d="M11 11h128v128H11z"/><path class="st24" d="M111.943 52.251a2.251 2.251 0 0 0-1.693-.768H53.781l-1.974-13.826a2.25 2.25 0 0 0-2.227-1.932h-9.83a2.25 2.25 0 0 0 0 4.5h7.878l6.948 48.666-2.403 3.722a6.746 6.746 0 0 0-.258 6.89 6.747 6.747 0 0 0 5.928 3.522h43.032a2.25 2.25 0 0 0 0-4.5H57.843c-1.207 0-1.784-.82-1.976-1.174-.192-.352-.569-1.283.086-2.296l2.276-3.525 48.113-4.668a2.25 2.25 0 0 0 2.013-1.942l2.64-19.762c.073-.223.123-.457.123-.705 0-.043-.01-.083-.013-.126l1.375-10.296a2.25 2.25 0 0 0-.537-1.78zM78.82 62.203h-7.384v-6.22h7.384v6.22zm4.5-6.22h7.384v6.22H83.32v-6.22zm-4.5 10.72v6.75h-7.384v-6.75h7.384zm-11.884 6.75H56.918l-.964-6.75h10.982v6.75zm-9.376 4.5h9.376v8.211l-8.091.785-1.285-8.996zm13.876 0h7.384v7.058l-7.384.716v-7.774zm11.884 0h7.384v5.905l-7.384.717v-6.622zm0-4.5v-6.75h7.384v6.75H83.32zm11.884-6.75h11.044l-.902 6.75H95.204v-6.75zm11.645-4.5H95.204v-6.22h12.476l-.831 6.22zm-39.913-6.22v6.22H55.312l-.888-6.22h12.512zm28.268 27.439v-5.469h9.541l-.614 4.603-8.927.866z" fill="#3B566A"/><circle class="st21" cx="60.4933243" cy="108.6501389" r="5.6249738" fill="#1C75A1"/><circle class="st9" cx="60.493454" cy="108.6501389" r="3.3749843" fill="#E1E6E9"/><circle class="st21" cx="92.2855911" cy="108.6501389" r="5.6249738" fill="#1C75A1"/><circle class="st9" cx="92.2858505" cy="108.6501389" r="3.3749843" fill="#E1E6E9"/><metadata><rdf:RDF xmlns:rdf="http://www.w3.org/1999/02/22-rdf-syntax-ns#" xmlns:rdfs="http://www.w3.org/2000/01/rdf-schema#" xmlns:dc="http://purl.org/dc/elements/1.1/"><rdf:Description about="https://iconscout.com/legal#licenses" dc:title="cart,shopping,baby,ecommerce" dc:description="cart,shopping,baby,ecommerce" dc:publisher="Iconscout" dc:date="2017-11-08" dc:format="image/svg+xml" dc:language="en"><dc:creator><rdf:Bag><rdf:li>Dinosoft Labs</rdf:li></rdf:Bag></dc:creator></rdf:Description></rdf:RDF></metadata></svg>